# xmcd
#
# Track frame offsets: 
#        150
#        8727
#        18320
#        24900
#        35462
#        49027
#        61985
#        72070
#        80977
#        91850
#        101537
#        115240
#        124022
#        134792
#        146605
#        154787
#        167672
#        175475
#        183580
#        194170
#        205395
#        215867
#        228552
#        239672
#        252665
#        264365
#        274975
#        284777
#        294060
#        305775
#        315732
#
# Disc length: 4367 seconds
#
# Revision: 0
# Processed by: cddbd v1.5.2PL0 Copyright (c) Steve Scherf et al.
# Submitted via: ExactAudioCopy v0.95b3
#
DISCID=e3110d1f
DTITLE=Dave Clark Five  - The Complete History - Vol. 4   5 By 5   You
DTITLE=Got What It Takes   Everybody Knows
DYEAR=1900
DGENRE=
TTITLE0=Nineteen Days
TTITLE1=Something I've Always Wanted
TTITLE2=Little Bit Strong
TTITLE3=Bernedette
TTITLE4=Sitting Here Baby
TTITLE5=You Don't Want My Loving
TTITLE6=How Can I Tell You
TTITLE7=Picture Of You
TTITLE8=Small Talk
TTITLE9=Pick Up Your Phone
TTITLE10=You Got What It Takes
TTITLE11=I've Got To Have A Reason
TTITLE12=You Don't Play Me Around
TTITLE13=Thinking Of You Baby
TTITLE14=Lovin' So Good
TTITLE15=Doctor Rhythm
TTITLE16=Play With Me
TTITLE17=Let Me Be
TTITLE18=Blueberry Hill
TTITLE19=Tabatha Twitchit
TTITLE20=Everybody Knows
TTITLE21=A Little Bit Now
TTITLE22=At The Place
TTITLE23=Inside And Out
TTITLE24=Red And Blue
TTITLE25=You Must Have Been A Beautiful Baby
TTITLE26=Good Love Is Hard To Find
TTITLE27=Lost In His Dreams
TTITLE28=Concentration Baby
TTITLE29=Hold On Tight
TTITLE30=I'll Do The Best I Can
EXTD=
EXTT0=
EXTT1=
EXTT2=
EXTT3=
EXTT4=
EXTT5=
EXTT6=
EXTT7=
EXTT8=
EXTT9=
EXTT10=
EXTT11=
EXTT12=
EXTT13=
EXTT14=
EXTT15=
EXTT16=
EXTT17=
EXTT18=
EXTT19=
EXTT20=
EXTT21=
EXTT22=
EXTT23=
EXTT24=
EXTT25=
EXTT26=
EXTT27=
EXTT28=
EXTT29=
EXTT30=
PLAYORDER=
